<mxfile host="app.diagrams.net" modified="2024-07-06T03:10:10.249Z" agent="Mozilla/5.0 (Macintosh; Intel Mac OS X 10_15_7) AppleWebKit/605.1.15 (KHTML, like Gecko) Version/17.4 Safari/605.1.15" etag="F5DzhSA5NklIk2BETHFL" version="24.6.4" type="github">
  <diagram name="第 1 页" id="HMCDHTZtMJCFixFYVI7Q">
    <mxGraphModel dx="984" dy="1067" grid="0" gridSize="10" guides="1" tooltips="1" connect="1" arrows="1" fold="1" page="0" pageScale="1" pageWidth="827" pageHeight="1169" background="none" math="0" shadow="0">
      <root>
        <mxCell id="0" />
        <mxCell id="1" parent="0" />
        <mxCell id="wV2NmTg40-L_2vOZiA6j-3" value="" style="rounded=0;whiteSpace=wrap;html=1;" vertex="1" parent="1">
          <mxGeometry x="100" y="-120" width="190" height="270" as="geometry" />
        </mxCell>
        <mxCell id="wV2NmTg40-L_2vOZiA6j-4" value="&lt;font style=&quot;font-size: 22px;&quot;&gt;data&lt;/font&gt;" style="rounded=0;whiteSpace=wrap;html=1;" vertex="1" parent="1">
          <mxGeometry x="100" y="52" width="190" height="60" as="geometry" />
        </mxCell>
        <mxCell id="wV2NmTg40-L_2vOZiA6j-5" value="&lt;font style=&quot;font-size: 22px;&quot;&gt;heap&lt;/font&gt;" style="rounded=0;whiteSpace=wrap;html=1;" vertex="1" parent="1">
          <mxGeometry x="100" y="2" width="190" height="50" as="geometry" />
        </mxCell>
      </root>
    </mxGraphModel>
  </diagram>
</mxfile>
